# xmcd
#
# Track frame offsets: 
#        150
#        19759
#        34822
#        51176
#        65120
#        90267
#        107426
#        128447
#        147687
#        159008
#
# Disc length: 2385 seconds
#
# Revision: 3
# Processed by: cddbd v1.5.2PL0 Copyright (c) Steve Scherf et al.
# Submitted via: ExactAudioCopy v1.0b3
#
DISCID=7a094f0a
DTITLE=Harris, Emmylou - Cimarron [OAS]
DYEAR=1981
DGENRE=Country
TTITLE0=Rose Of Cimarron
TTITLE1=Harris, Emmylou with Fayssoux Starling - Spanish Is A Loving T
TTITLE1=ongue
TTITLE2=Harris, Emmylou with Don Williams - If I Needed You
TTITLE3=Another Lonesome Morning
TTITLE4=The Last Cheater's Waltz
TTITLE5=Born To Run
TTITLE6=The Price You Pay
TTITLE7=Son Of A Rotten Gambler
TTITLE8=Tennessee Waltz
TTITLE9=Tennessee Rose
EXTD=
EXTT0=
EXTT1=
EXTT2=
EXTT3=
EXTT4=
EXTT5=
EXTT6=
EXTT7=
EXTT8=
EXTT9=
PLAYORDER=
